<?xml version="1.0" standalone="no"?>
<!DOCTYPE svg PUBLIC "-//W3C//DTD SVG 20010904//EN"
 "http://www.w3.org/TR/2001/REC-SVG-20010904/DTD/svg10.dtd">
<svg version="1.0" xmlns="http://www.w3.org/2000/svg"
 width="700.000000pt" height="700.000000pt" viewBox="0 0 700.000000 700.000000"
 preserveAspectRatio="xMidYMid meet">
<metadata>
Created by potrace 1.14, written by Peter Selinger 2001-2017
</metadata>
<g transform="translate(0.000000,700.000000) scale(0.100000,-0.100000)"
fill="#000000" stroke="none">
<path d="M3690 6444 c-88 -129 -123 -348 -96 -592 3 -28 3 -52 0 -52 -6 0 -85
80 -139 140 -65 74 -105 125 -215 278 -138 190 -162 201 -86 37 30 -65 77
-138 246 -382 35 -51 61 -95 58 -98 -2 -3 -40 -10 -84 -15 -210 -27 -356 -83
-461 -177 -44 -39 -93 -100 -93 -116 0 -11 83 0 190 24 168 40 247 52 347 54
l101 2 69 -69 c62 -63 65 -68 35 -57 -43 15 -49 7 -24 -33 24 -39 57 -59 149
-94 83 -31 150 -69 161 -92 5 -9 12 -29 16 -44 9 -37 -12 -37 -84 2 -60 32
-70 35 -70 20 0 -19 55 -67 120 -104 36 -21 67 -40 69 -42 2 -2 9 -32 16 -67
10 -55 12 -92 6 -159 0 -10 -9 -18 -19 -18 -22 0 -58 38 -98 102 -16 27 -35
48 -41 48 -16 0 -16 1 2 -50 24 -67 21 -73 -22 -55 -21 9 -60 30 -88 47 -108
67 -154 87 -123 54 7 -8 38 -43 68 -78 126 -147 289 -228 463 -228 86 0 96 10
43 41 -41 24 -49 40 -40 85 4 21 -1 51 -14 87 -12 32 -17 59 -12 67 15 24 110
-85 158 -180 58 -117 83 -152 189 -266 50 -54 108 -121 129 -149 42 -56 94
-112 94 -102 0 7 -124 187 -254 367 -29 41 -80 127 -112 190 -67 133 -127 235
-156 267 -20 21 -20 24 -4 48 9 14 20 25 25 25 7 0 74 -69 210 -220 22 -25 41
-48 41 -52 0 -14 37 -8 50 7 29 34 45 5 61 -113 11 -80 36 -155 49 -147 4 2 8
42 9 87 2 99 13 149 37 184 42 59 54 80 54 95 0 19 -40 56 -107 98 -111 69
-226 249 -257 404 -18 86 -5 163 54 316 28 73 48 136 45 139 -16 16 -95 -94
-152 -210 -34 -69 -66 -128 -71 -132 -21 -13 -73 124 -88 235 -3 22 -7 48 -9
57 -2 9 -4 30 -4 45 -1 16 -5 26 -10 22 -11 -6 -27 -83 -36 -165 -3 -30 -8
-72 -11 -93 l-6 -39 -23 22 c-47 44 -69 116 -70 225 0 118 10 144 104 270 33
43 59 81 57 83 -10 9 -75 -35 -114 -76 -46 -49 -92 -137 -141 -267 l-29 -80
-17 40 c-69 159 -79 488 -18 608 20 39 2 33 -27 -9z"/>
<path d="M3128 5425 c-2 -2 -24 -6 -50 -9 -64 -9 -229 -57 -308 -91 -153 -65
-330 -167 -398 -229 -35 -33 -72 -83 -87 -120 l-15 -34 72 39 c39 21 77 39 84
39 7 0 15 4 18 9 9 14 139 43 175 39 l32 -3 -41 -50 c-23 -27 -47 -57 -53 -65
-59 -74 -122 -191 -160 -296 -31 -85 -41 -138 -51 -271 -7 -90 20 -65 93 88
28 58 61 115 74 128 l24 22 0 -173 c-1 -277 18 -425 79 -607 8 -24 13 -7 33
108 11 62 28 136 37 164 l17 51 12 -29 c107 -256 163 -352 268 -459 42 -43 79
-77 82 -74 3 3 -15 48 -41 100 -25 53 -48 115 -51 139 l-5 44 53 -55 c239
-251 320 -326 428 -399 58 -40 171 -100 225 -121 l26 -10 -19 38 c-11 20 -54
78 -95 127 -63 75 -120 163 -112 172 1 2 34 -11 73 -27 39 -17 173 -59 299
-95 270 -78 356 -112 442 -173 17 -13 32 -18 32 -12 0 25 -121 130 -230 198
-119 75 -200 136 -200 152 0 8 61 23 145 35 118 16 141 29 73 40 -24 4 -50 9
-58 10 -8 2 -71 6 -140 9 -118 7 -278 23 -290 31 -3 2 -24 6 -47 10 -67 10
-251 71 -332 110 -167 82 -308 199 -379 318 -92 153 -121 382 -73 570 59 225
232 416 513 565 43 23 73 44 68 47 -9 6 -236 6 -242 0z"/>
<path d="M3428 5339 c-72 -17 -245 -114 -343 -193 -288 -231 -363 -512 -208
-775 36 -61 201 -247 210 -237 3 2 -21 40 -51 84 -31 44 -66 101 -77 128 -20
45 -32 119 -21 137 2 5 24 -27 47 -72 63 -117 100 -167 179 -247 67 -67 176
-144 204 -144 13 0 17 42 5 54 -4 3 -8 14 -9 22 -2 11 7 7 28 -12 l30 -29 -7
45 c-27 164 1 266 68 241 42 -16 56 -76 58 -252 1 -64 4 -121 8 -128 4 -6 16
24 27 67 26 105 25 235 -4 325 -20 64 -21 97 -1 97 22 0 89 -75 109 -122 24
-57 47 -173 52 -261 3 -63 12 -65 29 -4 21 77 14 191 -15 275 -8 23 -15 43
-15 45 2 6 -39 101 -71 161 -32 64 -38 70 -69 73 -54 5 -59 27 -9 31 68 5 121
-16 234 -94 59 -41 112 -74 116 -74 27 0 -79 111 -165 175 -34 25 -67 50 -74
55 -7 6 -15 10 -18 10 -3 0 -22 11 -43 24 -20 14 -61 38 -91 54 l-54 30 -49
-25 c-26 -13 -48 -27 -49 -31 0 -4 -2 -25 -3 -47 -2 -22 -4 -47 -5 -56 0 -9
-12 -33 -26 -54 -24 -35 -26 -45 -24 -139 4 -178 -22 -201 -115 -102 -65 69
-105 181 -108 304 -1 34 -7 63 -13 63 -5 1 -23 2 -40 3 -25 1 -33 8 -50 44
-13 29 -25 42 -35 39 -43 -13 -45 -12 -42 13 5 52 62 148 118 199 31 28 59 51
64 51 16 0 30 -28 35 -70 3 -24 7 -45 9 -47 7 -8 67 59 101 112 49 78 66 97
150 160 39 29 81 64 94 79 l24 26 -29 -1 c-16 -1 -46 -5 -66 -10z"/>
<path d="M2736 3839 c-3 -24 -8 -57 -10 -74 -2 -16 -5 -43 -5 -58 -1 -30 -21
-28 -21 2 0 10 -10 26 -21 37 l-22 19 6 -100 c4 -55 8 -109 11 -120 14 -60 46
-221 45 -230 0 -5 -20 12 -44 39 -37 41 -43 45 -41 25 21 -163 67 -256 218
-447 32 -40 58 -77 58 -81 0 -5 -11 -6 -24 -4 -37 7 -40 -14 -5 -33 37 -18
257 -66 270 -58 5 3 19 23 30 46 l20 40 81 -7 c45 -3 84 -7 87 -9 3 -2 24 -7
46 -10 22 -4 63 -17 92 -31 29 -13 53 -21 53 -18 0 16 -36 62 -63 80 -30 20
-140 55 -212 67 -16 3 -41 7 -55 10 -14 3 -37 8 -52 12 -42 9 -35 40 20 94 37
37 70 56 155 89 107 43 129 60 82 62 -14 1 -31 2 -37 3 -22 3 -110 -20 -182
-48 -98 -38 -108 -36 -100 17 8 50 39 99 85 133 39 29 139 60 218 69 30 3 57
7 59 9 9 9 -77 29 -123 28 -88 0 -165 -41 -297 -154 -46 -40 -68 -66 -68 -81
0 -31 -27 -67 -51 -67 -16 0 -19 8 -20 48 -2 58 -2 48 5 104 8 62 15 78 32 78
18 0 30 30 39 100 3 30 9 67 11 82 3 19 -1 30 -15 37 -20 11 -84 104 -149 216
-22 39 -54 83 -70 99 l-30 28 -6 -43z"/>
<path d="M4070 3641 c0 -6 28 -22 63 -38 108 -48 303 -149 364 -189 50 -32
144 -106 179 -139 36 -35 109 -135 133 -183 55 -111 71 -178 76 -322 6 -148
-21 -274 -85 -400 -56 -111 -88 -156 -190 -263 -82 -87 -158 -137 -342 -225
-82 -39 -148 -74 -148 -77 0 -4 35 -4 79 -1 136 11 237 49 381 146 l93 62 -6
-68 c-4 -59 -14 -86 -66 -186 -33 -65 -57 -118 -53 -118 17 0 165 164 212 236
145 222 205 450 203 774 l-1 125 34 -39 c18 -21 56 -78 85 -127 29 -48 62 -98
74 -109 l22 -21 -13 77 c-32 182 -124 391 -268 608 -47 71 -84 131 -82 133 2
2 43 -9 90 -26 47 -17 86 -27 86 -22 0 15 -116 117 -187 163 -171 114 -405
197 -628 223 -27 4 -62 8 -77 11 -16 2 -28 0 -28 -5z"/>
<path d="M4380 3363 c0 -4 18 -34 40 -68 52 -80 80 -160 80 -230 l0 -55 25 16
c14 9 28 14 31 11 9 -9 6 -113 -5 -153 -6 -22 -22 -67 -35 -101 -13 -35 -21
-63 -16 -63 4 0 31 16 59 35 28 20 62 40 76 45 l24 9 -13 -44 c-23 -76 -55
-114 -174 -205 -39 -30 -70 -59 -68 -65 1 -5 26 -14 54 -20 28 -5 53 -13 57
-16 5 -5 -112 -32 -200 -46 -49 -8 -49 -18 0 -59 91 -75 130 -113 124 -118 -3
-4 -53 16 -111 43 -57 27 -135 58 -172 69 l-67 20 7 -21 c4 -12 26 -56 50 -97
24 -41 44 -87 44 -103 0 -35 -2 -34 -152 74 -111 80 -157 105 -211 116 -28 6
-28 5 32 -89 55 -85 99 -178 85 -178 -11 0 -142 94 -256 183 -64 51 -140 105
-167 120 l-51 28 12 -28 c7 -15 20 -41 30 -58 42 -71 59 -107 54 -112 -3 -3
-65 55 -138 129 -132 133 -218 197 -218 163 0 -9 7 -30 16 -46 29 -56 8 -52
-81 17 -152 115 -215 144 -175 78 12 -19 20 -38 17 -41 -3 -3 -28 0 -54 6 -82
20 -96 22 -166 28 -118 9 -203 -14 -112 -31 19 -4 35 -11 35 -16 0 -13 -31
-28 -71 -35 -50 -8 -128 -35 -135 -46 -3 -6 0 -17 7 -25 10 -13 4 -23 -42 -62
-107 -94 -126 -117 -143 -178 -10 -33 -36 -108 -60 -169 -46 -117 -55 -145
-63 -213 -4 -35 -3 -41 11 -36 8 3 18 14 21 24 3 10 12 21 20 24 12 4 15 -4
16 -37 4 -157 52 -372 114 -512 94 -210 249 -394 453 -533 86 -58 199 -125
256 -150 26 -12 28 -11 16 2 -7 9 -67 58 -134 108 -133 102 -265 226 -288 273
-9 17 -19 45 -23 64 l-7 34 83 -45 c46 -24 154 -90 240 -146 236 -153 351
-211 494 -248 84 -22 93 -24 160 -30 33 -3 66 -7 73 -10 7 -2 10 0 7 5 -3 6
-63 32 -133 60 -143 56 -264 117 -334 168 -27 19 -48 36 -48 38 0 2 70 3 156
2 229 -4 352 9 524 53 199 51 417 178 572 334 58 58 127 151 141 190 7 16 4
18 -25 12 -18 -4 -44 -18 -58 -33 -14 -15 -17 -21 -8 -14 9 7 25 11 34 9 12
-2 0 -21 -50 -74 -153 -166 -350 -280 -576 -334 -121 -29 -177 -35 -330 -34
-238 0 -409 17 -489 46 -43 17 -51 22 -37 30 17 9 100 29 221 53 226 44 326
75 405 125 52 33 63 45 33 36 -10 -3 -29 -7 -43 -10 -14 -3 -52 -13 -85 -22
-33 -9 -67 -17 -75 -19 -8 -2 -42 -10 -75 -18 -33 -9 -76 -18 -95 -21 -19 -4
-53 -9 -75 -13 -54 -9 -247 -10 -315 -1 -59 8 -135 30 -172 49 -31 16 -78 60
-73 69 2 4 33 2 67 -5 183 -33 444 15 579 107 77 52 65 59 -39 21 -158 -57
-231 -74 -330 -77 -270 -9 -477 118 -563 343 -37 99 -44 271 -14 361 29 88
113 200 195 262 100 75 195 109 300 108 86 -1 88 -2 122 -31 32 -27 33 -28 13
-43 -11 -8 -49 -18 -85 -21 -36 -3 -74 -10 -84 -14 -42 -16 101 -63 234 -76
214 -21 253 -26 293 -36 21 -6 35 -14 32 -18 -7 -13 -81 -29 -165 -37 -41 -4
-84 -10 -94 -14 -17 -6 -16 -9 12 -29 52 -37 132 -68 258 -99 165 -42 205 -46
404 -46 211 0 300 19 455 93 224 108 380 277 449 487 25 76 27 90 30 194 7
217 -79 423 -243 589 -74 75 -131 125 -131 114z"/>
<path d="M4056 1124 c-9 -23 -2 -28 13 -10 7 8 8 17 3 20 -6 3 -13 -1 -16 -10z"/>
</g>
</svg>
